<?xml version="1.0" encoding="UTF-8"?>
<svg version="1.1" xmlns="http://www.w3.org/2000/svg" width="1024" height="1024">
<path d="M0 0 C337.92 0 675.84 0 1024 0 C1024 337.92 1024 675.84 1024 1024 C686.08 1024 348.16 1024 0 1024 C0 686.08 0 348.16 0 0 Z " fill="#121B24" transform="translate(0,0)"/>
<path d="M0 0 C2.89241802 2.89241802 3.34092412 6.38807293 4.3125 10.25 C4.5283374 11.08829346 4.7441748 11.92658691 4.96655273 12.7902832 C6.8386957 20.15341269 8.52897018 27.55611636 10.18359375 34.97070312 C11.76374326 42.04111735 13.48987622 49.06355216 15.30078125 56.078125 C16 59 16 59 16 61 C16.70600342 60.87302734 17.41200684 60.74605469 18.1394043 60.61523438 C26.0072709 59.24635248 33.86876005 58.30036721 41.8125 57.5 C51.56738404 56.48863481 61.29328178 55.40318206 71 54 C68.41291523 57.31470237 65.84113747 60.22695619 62.625 62.9375 C58.35152592 66.56914052 54.44064452 70.5163174 50.5 74.5 C46.17701 78.86558362 41.85320237 83.10616431 37.15234375 87.06640625 C33.33040574 90.49990773 29.77381262 94.2073471 26.16113281 97.85839844 C21.93659026 102.11047739 17.59413673 106.14728015 13 110 C12.67 110.33 12.34 110.66 12 111 C13.19713245 111.00146656 14.39426491 111.00293312 15.6276741 111.00444412 C44.03324744 111.04013169 72.43872925 111.09635194 100.84420766 111.17792095 C104.33900911 111.18793863 107.83381103 111.19778273 111.32861328 111.20751953 C112.02437728 111.2094609 112.72014128 111.21140228 113.43698904 111.21340248 C124.70867088 111.24443942 135.98033235 111.26140784 147.25204888 111.27319422 C158.8144177 111.28559704 170.37666366 111.31337683 181.93896747 111.35461307 C188.43482484 111.3772907 194.93052927 111.39290691 201.42642975 111.39188385 C207.53643967 111.39114096 213.64611066 111.40894212 219.75603294 111.44116783 C222.00224196 111.4497095 224.2484888 111.45138806 226.49470711 111.44580269 C229.55467236 111.4392055 232.61354566 111.45698089 235.67340088 111.48101807 C236.56834047 111.47325765 237.46328005 111.46549723 238.38533902 111.45750165 C244.34421668 111.54073148 244.34421668 111.54073148 247.55056381 113.78625107 C249.80217044 117.22516877 249.57080685 120.7361135 249.53125 124.7109375 C249.5350769 125.55669342 249.53890381 126.40244934 249.54284668 127.27383423 C249.54556513 129.06082348 249.53820854 130.84785257 249.52148438 132.63476562 C249.50012556 135.35898504 249.52125925 138.08055141 249.546875 140.8046875 C249.54423067 142.54427662 249.53910351 144.2838641 249.53125 146.0234375 C249.53934692 146.83299896 249.54744385 147.64256042 249.55578613 148.47665405 C249.46940987 153.73408495 248.60704935 156.91057158 245 161 C242.88330078 162.13012695 242.88330078 162.13012695 240.5703125 162.67578125 C239.68891602 162.8970166 238.80751953 163.11825195 237.89941406 163.34619141 C236.4642041 163.66982666 236.4642041 163.66982666 235 164 C232.91405707 164.51430089 230.82811984 165.02862492 228.7421875 165.54296875 C227.63464111 165.80754883 226.52709473 166.07212891 225.38598633 166.34472656 C176.8358342 177.99865363 125.57963758 198.7109929 97.625 242.625 C88.69514779 257.69412561 85.58733444 273.52471449 88.6875 290.83984375 C91.67353412 301.30340499 97.00658102 309.37019732 104.4609375 317.1875 C106 319 106 319 106 321 C106.58910156 321.26554687 107.17820312 321.53109375 107.78515625 321.8046875 C110.05812354 323.03136826 111.57793351 324.3441234 113.4375 326.125 C123.98262744 335.54872396 136.22763124 341.98920712 150.25 343.5625 C157.174139 344.35631771 161.91583204 345.02612157 167.1027832 350.02758789 C169.7388697 354.15760373 169.55917065 357.47869787 169.49609375 362.28125 C169.49754898 363.17235474 169.49900421 364.06345947 169.50050354 364.98156738 C169.49884748 366.86095457 169.48731907 368.74035572 169.46655273 370.61962891 C169.43759585 373.49049698 169.44595025 376.35951735 169.45898438 379.23046875 C169.45274648 381.05990478 169.44435514 382.88933499 169.43359375 384.71875 C169.43652939 385.57408325 169.43946503 386.4294165 169.44248962 387.31066895 C169.36902667 391.96913618 169.20297425 395.34719597 166 399 C160.86796536 402.24638587 156.65864898 402.4352335 150.78515625 402.40405273 C149.4230452 402.41434761 149.4230452 402.41434761 148.03341675 402.42485046 C145.04295045 402.44309599 142.05300982 402.43928455 139.0625 402.43359375 C136.97794423 402.43815622 134.89338997 402.44346199 132.80883789 402.44947815 C128.44443645 402.45840454 124.08021804 402.45599095 119.71582031 402.44604492 C114.12702535 402.43454869 108.53886159 402.45477945 102.95014954 402.48396206 C98.64697264 402.50231904 94.3439472 402.5020327 90.04074097 402.49632454 C87.9802868 402.4961713 85.91982239 402.50221757 83.85940552 402.51461601 C80.97748323 402.52951661 78.0967298 402.51885603 75.21484375 402.50170898 C74.36687225 402.51137695 73.51890076 402.52104492 72.64523315 402.53100586 C64.89896869 402.43464014 60.76590871 398.89799766 55.25 393.6875 C32.938953 373.42880451 5.36043183 366.62351169 -24.22729492 366.62939453 C-26.66722295 366.62503622 -29.10531322 366.58861988 -31.54492188 366.55078125 C-56.93868708 366.3693641 -82.90727878 374.53225526 -101.36328125 392.56640625 C-103 394 -103 394 -105 394 C-105.2568564 394.61426094 -105.51371281 395.22852188 -105.77835274 395.86139679 C-107.85635263 399.49912217 -111.14179913 400.67340693 -115 402 C-118.10141808 402.51827522 -121.11878663 402.5485002 -124.25830078 402.51757812 C-125.14715973 402.5245874 -126.03601868 402.53159668 -126.95181274 402.53881836 C-129.86663788 402.55631008 -132.78047887 402.54480911 -135.6953125 402.53125 C-137.73216944 402.53394697 -139.76902513 402.5378311 -141.80587769 402.54284668 C-146.06423257 402.54872936 -150.32225079 402.54021657 -154.58056641 402.52148438 C-160.03257521 402.49866666 -165.48379752 402.51184378 -170.93577766 402.53577423 C-175.13774525 402.55024061 -179.33952685 402.54562283 -183.54150009 402.53526306 C-185.55170663 402.53259961 -187.56193019 402.53585206 -189.57211685 402.54518127 C-192.38202817 402.55536382 -195.19067121 402.53982322 -198.00048828 402.51757812 C-198.82661621 402.52567505 -199.65274414 402.53377197 -200.50390625 402.54211426 C-206.7194787 402.45115902 -210.22172823 400.559458 -214.84130859 396.30371094 C-216.66111209 392.68557655 -216.5078373 389.13910163 -216.5390625 385.140625 C-216.55141937 384.27741638 -216.56377625 383.41420776 -216.57650757 382.52484131 C-216.59605677 380.69924686 -216.60730292 378.87354725 -216.61083984 377.04785156 C-216.6248873 374.27226809 -216.69217929 371.50123639 -216.76171875 368.7265625 C-216.94690963 353.87297636 -216.94690963 353.87297636 -212.7734375 348.859375 C-207.95543925 344.71521414 -203.60445638 343.81403694 -197.375 343.125 C-178.96687394 340.62963359 -163.21077742 330.76503909 -151.109375 316.83984375 C-142.01835218 304.6006334 -138.56988468 291.62932827 -140.27734375 276.55078125 C-142.14786779 266.34306436 -148.30311975 257.45560878 -156.40234375 251.12109375 C-171.49168748 240.86211262 -189.45712408 238.16542939 -207.24234009 236.40802002 C-266.69848245 230.43521157 -334.28081166 212.84903946 -374.96875 165.6328125 C-381.37385141 157.33081567 -388.2197879 147.92331886 -387.875 137.0625 C-387 134 -387 134 -384 132 C-381.5507409 131.81139761 -379.21656376 131.73897999 -376.76777649 131.75949097 C-376.02609024 131.75778212 -375.28440399 131.75607327 -374.52024239 131.75431263 C-372.02812731 131.75101114 -369.53627984 131.76203217 -367.04418945 131.77294922 C-365.26051846 131.77351319 -363.476847 131.77319705 -361.69317627 131.77206421 C-356.84429454 131.77148915 -351.99551126 131.78326826 -347.14665246 131.79721212 C-342.08175671 131.80969395 -337.01685883 131.81088797 -331.95195007 131.81326294 C-322.35784261 131.81948521 -312.7637806 131.83590613 -303.16969317 131.85596192 C-292.24843509 131.87829769 -281.32717487 131.8893085 -270.40589964 131.89935279 C-247.93724121 131.92027171 -225.46862315 131.9554622 -203 132 C-203.02320313 130.72382812 -203.04640625 129.44765625 -203.0703125 128.1328125 C-203.08906829 126.4635475 -203.10726869 124.7942762 -203.125 123.125 C-203.14175781 122.28324219 -203.15851563 121.44148437 -203.17578125 120.57421875 C-203.18222656 119.76855469 -203.18867188 118.96289062 -203.1953125 118.1328125 C-203.20578613 117.38918457 -203.21625977 116.64555664 -203.22705078 115.87939453 C-203 114 -203 114 -201 112 C-198.03648186 111.75390434 -198.03648186 111.75390434 -194.15377808 111.75949097 C-193.08540764 111.75692769 -193.08540764 111.75692769 -191.99545395 111.75431263 C-189.59696621 111.75100533 -187.19875516 111.76204161 -184.80029297 111.77294922 C-183.08573412 111.77351307 -181.37117478 111.77319729 -179.65661621 111.77206421 C-174.99155217 111.77148866 -170.32659027 111.7832756 -165.66155005 111.79721212 C-160.79016985 111.80968587 -155.9187875 111.81088733 -151.0473938 111.81326294 C-141.81803666 111.8194876 -132.58872671 111.83591172 -123.35939038 111.85596192 C-112.85410913 111.87829029 -102.34882566 111.88930663 -91.8435266 111.89935279 C-70.22899136 111.92027712 -48.61449865 111.9554722 -27 112 C-29.08567961 108.94977475 -31.17171507 105.89979302 -33.2578125 102.84985352 C-33.8453833 101.99054482 -34.4329541 101.13123611 -35.03833008 100.24588776 C-38.99808978 94.45708379 -42.97263959 88.6795551 -47 82.9375 C-47.56976563 82.12442383 -48.13953125 81.31134766 -48.7265625 80.47363281 C-56.65046359 69.19429123 -64.69735737 58.00394569 -73 47 C-72.67 46.34 -72.34 45.68 -72 45 C-71.14341797 45.30067383 -71.14341797 45.30067383 -70.26953125 45.60742188 C-58.80303742 49.62707512 -47.32258169 53.60678023 -35.8125 57.5 C-34.79220703 57.84998047 -33.77191406 58.19996094 -32.72070312 58.56054688 C-31.76744141 58.88087891 -30.81417969 59.20121094 -29.83203125 59.53125 C-28.99389893 59.81548828 -28.1557666 60.09972656 -27.29223633 60.39257812 C-24.75080059 61.17076671 -24.75080059 61.17076671 -21 61 C-20.67837891 60.0298999 -20.35675781 59.0597998 -20.02539062 58.06030273 C-9.22902431 25.51117135 -9.22902431 25.51117135 -4.3125 11.375 C-3.98636719 10.4358374 -3.66023438 9.4966748 -3.32421875 8.52905273 C-1.1334419 2.2668838 -1.1334419 2.2668838 0 0 Z " fill="#9B9C9D" transform="translate(551,440)"/>
<path d="M0 0 C8.49655302 4.6940833 13.67352863 12.91113376 19.32421875 20.5625 C22.43838354 24.76214562 25.65859396 28.87846818 28.875 33 C32.91154525 38.17567655 36.94161902 43.35534702 40.9375 48.5625 C49.47382752 59.67794782 58.09165798 70.73037917 66.76025391 81.74291992 C71.63619649 87.94182696 76.47438845 94.16998809 81.3125 100.3984375 C83.74629371 103.5315518 86.18401373 106.66154884 88.625 109.7890625 C92.07176331 114.20639454 95.50785236 118.63187008 98.9375 123.0625 C99.41687012 123.6797998 99.89624023 124.29709961 100.39013672 124.93310547 C101.6624043 126.57555389 102.92650456 128.22388983 104.1875 129.875 C104.87328125 130.76832031 105.5590625 131.66164063 106.265625 132.58203125 C110.64034055 139.07255549 110.77431153 145.4243692 109.9375 153.0625 C106.30564441 165.65058199 94.28528954 172.40131508 84.328125 179.78125 C79.75058773 183.18453153 75.24584428 186.67732714 70.75 190.1875 C69.99557617 190.7760376 69.24115234 191.3645752 68.46386719 191.97094727 C66.98620441 193.12386489 65.50866209 194.27693693 64.03125 195.43017578 C39.78159896 214.33562901 39.78159896 214.33562901 26.9375 213.0625 C17.27594493 210.61879009 10.8909173 200.41974536 4.9375 193.0625 C4.18082031 192.13308594 3.42414063 191.20367187 2.64453125 190.24609375 C1.36877271 188.65967145 0.10016386 187.06746473 -1.16015625 185.46875 C-6.34632016 178.90883836 -11.69216814 172.47225093 -17.0625 166.0625 C-21.26123649 167.77922477 -24.32809235 170.72831387 -27.6875 173.6875 C-28.95335599 174.78769192 -30.22028604 175.88664925 -31.48828125 176.984375 C-32.10396973 177.51740234 -32.7196582 178.05042969 -33.35400391 178.59960938 C-36.25392723 181.08265318 -39.24761817 183.44159918 -42.2421875 185.80859375 C-46.02713914 188.83340967 -49.7628525 191.91643617 -53.5 195 C-54.23919678 195.60980713 -54.97839355 196.21961426 -55.73999023 196.84790039 C-57.18753093 198.04211745 -58.63504157 199.23637096 -60.08251953 200.43066406 C-64.39845179 203.987716 -68.73121385 207.52417239 -73.0625 211.0625 C-74.89595036 212.56235696 -76.72928171 214.0623594 -78.5625 215.5625 C-81.2414992 217.75475146 -83.92074208 219.94669468 -86.6015625 222.13671875 C-89.42373066 224.44305255 -92.24392931 226.75177237 -95.0625 229.0625 C-95.69994141 229.58505371 -96.33738281 230.10760742 -96.99414062 230.64599609 C-104.88631497 237.11987201 -112.75472462 243.61689345 -120.53076172 250.22998047 C-124.72578182 253.79278404 -128.98164278 257.27575575 -133.25 260.75 C-136.38049666 263.32396392 -139.47422461 265.93819086 -142.5625 268.5625 C-146.53157935 271.93528574 -150.52266863 275.27426517 -154.5625 278.5625 C-160.2399116 283.18671061 -165.82550005 287.9142681 -171.40527344 292.65527344 C-174.12115766 294.96145444 -176.84207773 297.26167592 -179.5625 299.5625 C-180.64714775 300.48045418 -181.73178316 301.39842293 -182.81640625 302.31640625 C-184.96901786 304.13794632 -187.12274619 305.95815329 -189.27734375 307.77734375 C-194.89032251 312.51840348 -200.48714379 317.27723644 -206.0625 322.0625 C-207.23174731 323.06382955 -208.40101809 324.0651317 -209.5703125 325.06640625 C-211.90519978 327.06652629 -214.23199457 329.07558253 -216.5546875 331.08984375 C-219.68603255 333.79579515 -222.85804045 336.44342887 -226.0625 339.0625 C-226.77792969 339.65546875 -227.49335938 340.2484375 -228.23046875 340.859375 C-233.72214244 344.89037672 -239.43800241 345.05570614 -246.0625 344.0625 C-249.375 342.5 -249.375 342.5 -252.0625 340.0625 C-252.85140625 339.3509375 -252.85140625 339.3509375 -253.65625 338.625 C-258.9948766 333.57757122 -263.47863341 327.78448415 -268.0625 322.0625 C-268.8153125 321.15371094 -269.568125 320.24492187 -270.34375 319.30859375 C-271.0553125 318.44363281 -271.766875 317.57867187 -272.5 316.6875 C-273.45712891 315.53121094 -273.45712891 315.53121094 -274.43359375 314.3515625 C-277.36047779 310.23848326 -278.36626037 306.6473942 -278.4375 301.625 C-278.48003906 300.26568359 -278.48003906 300.26568359 -278.5234375 298.87890625 C-277.47295055 292.46025296 -272.90943401 288.76289045 -267.9375 285.0625 C-266.686105 284.10559025 -265.43480784 283.14855254 -264.18359375 282.19140625 C-263.51827637 281.68754395 -262.85295898 281.18368164 -262.16748047 280.66455078 C-259.19505606 278.40230896 -256.25313963 276.10169977 -253.30908203 273.80273438 C-246.3870799 268.39862529 -239.43454344 263.03497779 -232.46875 257.6875 C-228.32008632 254.49622025 -224.19217519 251.278287 -220.0625 248.0625 C-213.87733938 243.24610205 -207.67643054 238.4518052 -201.45703125 233.6796875 C-198.14650811 231.13343704 -194.85527334 228.56274984 -191.56323242 225.99267578 C-184.53122747 220.50511435 -177.46275746 215.07620524 -170.31323242 209.74267578 C-164.70113985 205.55306648 -159.12894904 201.31251511 -153.5625 197.0625 C-147.41485014 192.37001634 -141.2570519 187.69290766 -135.0625 183.0625 C-117.13990447 169.65628788 -99.38585105 156.05792061 -82.03979492 141.91308594 C-72.86251945 134.43918954 -63.57724512 127.10341139 -54.0625 120.0625 C-54.57014391 115.81859689 -57.21082749 113.25228175 -59.9375 110.1875 C-60.9460612 109.02521388 -61.95250843 107.86109062 -62.95703125 106.6953125 C-63.47346191 106.0962207 -63.98989258 105.49712891 -64.52197266 104.87988281 C-68.39427173 100.31167453 -72.03040782 95.55112415 -75.6953125 90.81640625 C-77.08540715 89.0331134 -78.49377123 87.26559847 -79.90625 85.5 C-80.8126734 84.35430383 -81.71892989 83.20847559 -82.625 82.0625 C-83.43066406 81.051875 -84.23632812 80.04125 -85.06640625 79 C-88.17755173 74.42156282 -89.35680521 70.19088471 -89.4375 64.6875 C-89.46585938 63.81351562 -89.49421875 62.93953125 -89.5234375 62.0390625 C-88.38226765 54.6698131 -84.81190897 50.31118604 -78.97265625 45.890625 C-78.19792969 45.32859375 -77.42320312 44.7665625 -76.625 44.1875 C-75.41457031 43.27871094 -75.41457031 43.27871094 -74.1796875 42.3515625 C-72.55816378 41.13477522 -70.93209502 39.92401834 -69.30126953 38.71972656 C-66.35667432 36.54001966 -63.45972714 34.3047984 -60.5625 32.0625 C-59.54027344 31.27746094 -58.51804687 30.49242187 -57.46484375 29.68359375 C-53.34094138 26.51107528 -49.23284211 23.31826919 -45.125 20.125 C-43.97765381 19.23482178 -43.97765381 19.23482178 -42.80712891 18.32666016 C-39.21034589 15.53171262 -35.62737069 12.72328953 -32.08203125 9.86328125 C-12.81631758 -5.65252598 -12.81631758 -5.65252598 0 0 Z " fill="#9C9D9E" transform="translate(569.0625,178.9375)"/>
<path d="M0 0 C2.89241802 2.89241802 3.34092412 6.38807293 4.3125 10.25 C4.5283374 11.08829346 4.7441748 11.92658691 4.96655273 12.7902832 C6.8386957 20.15341269 8.52897018 27.55611636 10.18359375 34.97070312 C11.76374326 42.04111735 13.48987622 49.06355216 15.30078125 56.078125 C16 59 16 59 16 61 C16.70600342 60.87302734 17.41200684 60.74605469 18.1394043 60.61523438 C26.0072709 59.24635248 33.86876005 58.30036721 41.8125 57.5 C51.56738404 56.48863481 61.29328178 55.40318206 71 54 C68.41291523 57.31470237 65.84113747 60.22695619 62.625 62.9375 C58.35152592 66.56914052 54.44064452 70.5163174 50.5 74.5 C46.17701 78.86558362 41.85320237 83.10616431 37.15234375 87.06640625 C33.32963739 90.50059799 29.77236431 94.20883326 26.15893555 97.8605957 C22.38581762 101.6582842 18.54786102 105.31180418 14.453125 108.765625 C12.86542205 110.08049325 12.86542205 110.08049325 11 112 C-0.86596193 113.78736573 -18.9643996 116.38719754 -29.84130859 110.44873047 C-34.16039781 106.32259375 -36.42670913 101.16774107 -38.73046875 95.73291016 C-40.89802537 91.06682769 -43.96949251 87.07355743 -47 82.9375 C-48.1695371 81.27675731 -49.33621876 79.61399998 -50.5 77.94921875 C-57.85341119 67.52571726 -65.31673708 57.18304793 -73 47 C-72.67 46.34 -72.34 45.68 -72 45 C-71.42894531 45.20044922 -70.85789062 45.40089844 -70.26953125 45.60742188 C-58.80303742 49.62707512 -47.32258169 53.60678023 -35.8125 57.5 C-34.79220703 57.84998047 -33.77191406 58.19996094 -32.72070312 58.56054688 C-31.76744141 58.88087891 -30.81417969 59.20121094 -29.83203125 59.53125 C-28.99389893 59.81548828 -28.1557666 60.09972656 -27.29223633 60.39257812 C-24.75080059 61.17076671 -24.75080059 61.17076671 -21 61 C-20.67837891 60.0298999 -20.35675781 59.0597998 -20.02539062 58.06030273 C-9.22902431 25.51117135 -9.22902431 25.51117135 -4.3125 11.375 C-3.98636719 10.4358374 -3.66023437 9.4966748 -3.32421875 8.52905273 C-1.1334419 2.2668838 -1.1334419 2.2668838 0 0 Z " fill="#E46018" transform="translate(551,440)"/>
<path d="M0 0 C0 3 0 3 -1.28173828 4.63818359 C-2.16708252 5.50950928 -2.16708252 5.50950928 -3.0703125 6.3984375 C-3.72 7.04296875 -4.3696875 7.6875 -5.0390625 8.3515625 C-5.72742188 9.01929688 -6.41578125 9.68703125 -7.125 10.375 C-7.79015625 11.035 -8.4553125 11.695 -9.140625 12.375 C-12.9469775 16.121645 -16.84359047 19.64638608 -21 23 C-18.88428423 25.11571577 -14.11167561 24.15499627 -11.1860199 24.15821838 C-10.25003198 24.16315636 -9.31404407 24.16809434 -8.34969288 24.17318195 C-5.18812723 24.18863833 -2.026582 24.19693948 1.13500977 24.20532227 C3.39128807 24.2148944 5.64756455 24.22490408 7.90383911 24.23532104 C14.05026651 24.2624482 20.19670165 24.28341533 26.3431561 24.30332303 C32.75872805 24.32513459 39.17427593 24.35254682 45.58982849 24.37937927 C56.36480735 24.42368393 67.13979299 24.46450805 77.91479492 24.50268555 C89.01506514 24.54202501 100.11532435 24.58344749 111.21557617 24.62768555 C111.89933544 24.63040982 112.5830947 24.63313409 113.28757394 24.63594092 C116.71765576 24.64962014 120.14773742 24.66334046 123.57781899 24.67708123 C152.05185636 24.79109382 180.52591788 24.89781876 209 25 C209.33 25.66 209.66 26.32 210 27 C132.12 26.67 54.24 26.34 -26 26 C-22.0483035 21.38968742 -18.57024924 17.5302092 -14.125 13.5625 C-9.26315363 9.1857754 -4.56628496 4.68715721 0 0 Z " fill="#000205" transform="translate(588,526)"/>
<path d="M0 0 C1.37562854 1.28965176 2.70766393 2.62689293 4 4 C4 4.66 4 5.32 4 6 C-53.75 6 -111.5 6 -171 6 C-171 5.67 -171 5.34 -171 5 C-114.57 4.67 -58.14 4.34 0 4 C0 2.68 0 1.36 0 0 Z " fill="#020509" transform="translate(520,546)"/>
<path d="M0 0 C-1.64839578 2.02351148 -2.44467592 2.94094501 -5.09375 3.22265625 C-5.8878125 3.16980469 -6.681875 3.11695313 -7.5 3.0625 C-13.19663498 2.86925132 -18.44474278 3.81713154 -24 5 C-24.33 6.32 -24.66 7.64 -25 9 C-29.95 8.67 -34.9 8.34 -40 8 C-40 7.67 -40 7.34 -40 7 C-36.7 6.67 -33.4 6.34 -30 6 C-34.39361872 5.93134971 -38.6467502 5.87685336 -43 6.5 C-47.31062922 7.10713088 -51.65354076 7.32336896 -56 7 C-57 6 -57 6 -57.0625 3.4375 C-57.041875 2.633125 -57.02125 1.82875 -57 1 C-55 4 -55 4 -55 6 C-54.29544678 5.87302734 -53.59089355 5.74605469 -52.86499023 5.61523438 C-44.95462266 4.23738677 -37.05020354 3.29658194 -29.0625 2.5 C-20.83382059 1.67667969 -12.69485452 0.70420715 -4.54467773 -0.71289062 C-2 -1 -2 -1 0 0 Z " fill="#E46C29" transform="translate(622,495)"/>
<path d="M0 0 C0.99 0.33 1.98 0.66 3 1 C3 2.32 3 3.64 3 5 C14.22 5 25.44 5 37 5 C36.67 5.66 36.34 6.32 36 7 C24.12 7 12.24 7 0 7 C0 6.34 0 5.68 0 5 C0.66 5 1.32 5 2 5 C2 4.01 2 3.02 2 2 C1.34 2 0.68 2 0 2 C0 1.34 0 0.68 0 0 Z " fill="#EE5D0E" transform="translate(525,544)"/>
<path d="M0 0 C3.07881125 3.07881125 3.38702593 6.78215464 4 11 C3.9375 13.9375 3.9375 13.9375 3 16 C0.4375 17.3125 0.4375 17.3125 -2 18 C-2 16.02 -2 14.04 -2 12 C-2.66 13.65 -3.32 15.3 -4 17 C-5.27424413 13.17726761 -4.44830198 11.69293974 -3.125 7.9375 C-2.75632812 6.87402344 -2.38765625 5.81054688 -2.0078125 4.71484375 C-1 2 -1 2 0 0 Z " fill="#E6651D" transform="translate(551,440)"/>
<path d="M0 0 C5.61 1.98 11.22 3.96 17 6 C14 7 14 7 12 7 C11.67 8.98 11.34 10.96 11 13 C10.01 13 9.02 13 8 13 C5.95703125 10.6640625 5.95703125 10.6640625 3.8125 7.625 C2.73935547 6.12839844 2.73935547 6.12839844 1.64453125 4.6015625 C0 2 0 2 0 0 Z " fill="#E4631B" transform="translate(478,485)"/>
<path d="M0 0 C0 3 0 3 -1.28173828 4.63818359 C-2.16708252 5.50950928 -2.16708252 5.50950928 -3.0703125 6.3984375 C-3.72 7.04296875 -4.3696875 7.6875 -5.0390625 8.3515625 C-5.72742188 9.01929688 -6.41578125 9.68703125 -7.125 10.375 C-7.79015625 11.035 -8.4553125 11.695 -9.140625 12.375 C-12.9469775 16.121645 -16.84359047 19.64638608 -21 23 C-20.67 23.99 -20.34 24.98 -20 26 C-21.98 26 -23.96 26 -26 26 C-21.92032987 20.90041234 -17.39122528 16.50920324 -12.55273438 12.14404297 C-8.22456406 8.23433468 -4.07048727 4.17823547 0 0 Z " fill="#0F090F" transform="translate(588,526)"/>
<path d="M0 0 C0.66 0 1.32 0 2 0 C2.33 2.31 2.66 4.62 3 7 C3.66 7 4.32 7 5 7 C5.33 5.68 5.66 4.36 6 3 C6.66 4.98 7.32 6.96 8 9 C10.31 9.33 12.62 9.66 15 10 C15 10.33 15 10.66 15 11 C9.06 11.495 9.06 11.495 3 12 C2.01 8.04 1.02 4.08 0 0 Z " fill="#231513" transform="translate(564,489)"/>
<path d="M0 0 C-1.68337967 2.08107131 -2.48939635 2.94014238 -5.19921875 3.2578125 C-6.02035156 3.21398437 -6.84148438 3.17015625 -7.6875 3.125 C-10.87304407 3.02357892 -13.84782634 3.02492698 -17 3.5 C-21.66197644 4.17827936 -26.29909119 4.08669709 -31 4 C-31 3.67 -31 3.34 -31 3 C-26.90769192 2.40404387 -22.81430227 1.81626159 -18.71972656 1.23608398 C-17.32649967 1.03749232 -15.93359084 0.836656 -14.54101562 0.63354492 C-12.54121242 0.34226305 -10.54014893 0.05967525 -8.5390625 -0.22265625 C-7.33459473 -0.39547119 -6.13012695 -0.56828613 -4.88916016 -0.74633789 C-2 -1 -2 -1 0 0 Z " fill="#DB7335" transform="translate(622,495)"/>
<path d="M0 0 C-0.33 0.66 -0.66 1.32 -1 2 C-3.50580398 2.28696929 -5.92355619 2.46732761 -8.4375 2.5625 C-13.36923374 2.59767285 -13.36923374 2.59767285 -18 4 C-20.00800456 3.71887936 -22.01014051 3.38932033 -24 3 C-24 2.67 -24 2.34 -24 2 C-15.95072024 0.70098079 -8.16240568 -0.33853295 0 0 Z " fill="#ED5B0B" transform="translate(593,500)"/>
<path d="M0 0 C2.69007598 2.69007598 3.02729236 5.36855815 4 9 C4.33 9.66 4.66 10.32 5 11 C4.72057545 12.67654729 4.39171753 14.34608154 4 16 C3.34 16 2.68 16 2 16 C1.855625 14.865625 1.71125 13.73125 1.5625 12.5625 C1.38828522 9.19222799 1.38828522 9.19222799 0 8 C-0.14115161 5.32941149 -0.04247107 2.67567762 0 0 Z " fill="#EB5B0D" transform="translate(561,485)"/>
<path d="M0 0 C5.61 1.98 11.22 3.96 17 6 C13.52128379 7.15957207 12.65780355 6.77456651 9.3125 5.5625 C8.50425781 5.27503906 7.69601562 4.98757813 6.86328125 4.69140625 C5.94095703 4.34916016 5.94095703 4.34916016 5 4 C4.67 4.99 4.34 5.98 4 7 C0 2.25 0 2.25 0 0 Z " fill="#DC7538" transform="translate(478,485)"/>
<path d="M0 0 C0.33 0.66 0.66 1.32 1 2 C-0.27984466 5.83953399 -2.81501296 7.65316744 -6 10 C-6.66 9.67 -7.32 9.34 -8 9 C-6.4169423 4.7257442 -3.49431596 2.73468206 0 0 Z " fill="#14151A" transform="translate(597,518)"/>
<path d="M0 0 C0.66 0.66 1.32 1.32 2 2 C1.57513708 5.49160074 -0.09397458 8.58702217 -1.5625 11.75 C-2.01753906 12.73484375 -2.47257813 13.7196875 -2.94140625 14.734375 C-3.29074219 15.48203125 -3.64007812 16.2296875 -4 17 C-5.27424413 13.17726761 -4.44830198 11.69293974 -3.125 7.9375 C-2.75632812 6.87402344 -2.38765625 5.81054688 -2.0078125 4.71484375 C-1 2 -1 2 0 0 Z " fill="#DB7837" transform="translate(551,440)"/>
<path d="M0 0 C0 3.51716303 -0.82445585 4.37121748 -3 7 C-2.67 7.66 -2.34 8.32 -2 9 C-3.98 9 -5.96 9 -8 9 C-7.04270084 7.87411986 -6.08412105 6.7493285 -5.125 5.625 C-4.59132813 4.99851562 -4.05765625 4.37203125 -3.5078125 3.7265625 C-2.38567993 2.44163349 -1.20628025 1.20628025 0 0 Z " fill="#1C0E0C" transform="translate(570,543)"/>
<path d="M0 0 C0.66 0 1.32 0 2 0 C1.43628586 3.26954202 0.50037734 4.82575883 -2 7 C-2.66 6.67 -3.32 6.34 -4 6 C-3.67 4.68 -3.34 3.36 -3 2 C-2.01 2 -1.02 2 0 2 C0 1.34 0 0.68 0 0 Z " fill="#EB661F" transform="translate(565,544)"/>
<path d="M0 0 C0.66 0.33 1.32 0.66 2 1 C0.625 3 0.625 3 -1 5 C-1.66 5 -2.32 5 -3 5 C-3 5.66 -3 6.32 -3 7 C-4.32 6.67 -5.64 6.34 -7 6 C-4.69 4.02 -2.38 2.04 0 0 Z " fill="#A7AAAB" transform="translate(376,406)"/>
<path d="M0 0 C0.66 0.33 1.32 0.66 2 1 C-0.31 3.31 -2.62 5.62 -5 8 C-5.66 7.34 -6.32 6.68 -7 6 C-4.69 4.02 -2.38 2.04 0 0 Z " fill="#0A0F15" transform="translate(641,367)"/>
<path d="M0 0 C0.66 0.33 1.32 0.66 2 1 C0.02 3.31 -1.96 5.62 -4 8 C-4.33 7.01 -4.66 6.02 -5 5 C-3.35 3.35 -1.7 1.7 0 0 Z " fill="#10151C" transform="translate(667,659)"/>
<path d="M0 0 C0.99 0.33 1.98 0.66 3 1 C3 1.99 3 2.98 3 4 C2.34 4 1.68 4 1 4 C0.67 4.99 0.34 5.98 0 7 C-0.66 5.35 -1.32 3.7 -2 2 C-1.34 2 -0.68 2 0 2 C0 1.34 0 0.68 0 0 Z " fill="#DB6422" transform="translate(524,545)"/>
</svg>
