<?xml version="1.0" encoding="UTF-8"?>
<svg version="1.1" xmlns="http://www.w3.org/2000/svg" width="768" height="768">
<path d="M0 0 C2 1 2 1 2.65811157 2.79066467 C2.84908417 3.57009933 3.04005676 4.349534 3.23681641 5.15258789 C3.45689362 6.03342545 3.67697083 6.914263 3.90371704 7.8217926 C4.13400604 8.77907761 4.36429504 9.73636261 4.6015625 10.72265625 C4.8428891 11.69786728 5.0842157 12.67307831 5.33285522 13.67784119 C6.10462544 16.80421894 6.86491574 19.93326282 7.625 23.0625 C8.14508168 25.17791931 8.66590532 27.29315636 9.1875 29.40820312 C10.46696181 34.60338161 11.73700042 39.80079637 13 45 C13.8559375 44.84982422 14.711875 44.69964844 15.59375 44.54492188 C18.89377167 44.0169941 22.17611178 43.62489966 25.5 43.28125 C26.716875 43.15363281 27.93375 43.02601563 29.1875 42.89453125 C33 42.5 33 42.5 36.8125 42.10546875 C38.029375 41.97785156 39.24625 41.85023438 40.5 41.71875 C41.6034375 41.60466797 42.706875 41.49058594 43.84375 41.37304688 C46.91726791 41.00977836 49.95208276 40.53476259 53 40 C51.40584497 43.91209308 48.86106668 46.37218086 45.875 49.3125 C45.37709961 49.80395508 44.87919922 50.29541016 44.36621094 50.80175781 C41.73520632 53.37847993 39.0581962 55.86860014 36.25 58.25 C31.40222952 62.37512147 26.99572957 66.9541866 22.54199219 71.49511719 C18.52931121 75.56262197 14.38590067 79.33661578 10 83 C14.09341499 83.02469575 18.18680121 83.04285793 22.28027344 83.05493164 C23.67318477 83.0599643 25.0660908 83.06679098 26.45898438 83.07543945 C28.45961246 83.08755152 30.46027888 83.09270412 32.4609375 83.09765625 C33.66540527 83.10289307 34.86987305 83.10812988 36.11083984 83.11352539 C38.9413677 83.20087891 38.9413677 83.20087891 41 82 C43.21138855 82.08811445 45.42042185 82.2429784 47.625 82.4375 C49.40777344 82.59025391 49.40777344 82.59025391 51.2265625 82.74609375 C52.59941406 82.87177734 52.59941406 82.87177734 54 83 C54.33 82.34 54.66 81.68 55 81 C55.66 81 56.32 81 57 81 C57 81.66 57 82.32 57 83 C57.96852465 82.99723462 57.96852465 82.99723462 58.95661545 82.99441338 C74.66367902 82.95025484 90.37072103 82.91715342 106.07783127 82.89637566 C113.67365497 82.88606075 121.26943726 82.87199634 128.86523438 82.84912109 C135.48532109 82.82919376 142.1053778 82.81628512 148.72549367 82.81182301 C152.23116472 82.80921451 155.73674994 82.80307899 159.24239349 82.78853989 C163.15477616 82.77244534 167.06707466 82.7720199 170.97949219 82.77294922 C172.14330414 82.76575867 173.30711609 82.75856812 174.50619507 82.75115967 C176.10471817 82.75528366 176.10471817 82.75528366 177.73553467 82.75949097 C178.66101482 82.75764738 179.58649498 82.75580379 180.54001999 82.75390434 C183.17096523 83.01710331 184.78153825 83.5794847 187 85 C189.13751988 89.27503975 188.30913109 94.89540746 188.35009766 99.63867188 C188.36661675 101.03923201 188.3938542 102.43970925 188.43212891 103.83984375 C188.78807495 116.93865803 188.78807495 116.93865803 186.12109375 120.8046875 C181.80489728 123.84061042 177.83447448 124.53276781 172.6875 125.375 C141.93557879 131.22887337 110.98653723 143.44558692 88.75 166.1875 C87.8425 167.115625 86.935 168.04375 86 169 C85.34 169 84.68 169 84 169 C83.74992187 169.56460938 83.49984375 170.12921875 83.2421875 170.7109375 C81.81532605 173.34031112 80.07906003 175.36123988 78.125 177.625 C74.1991898 182.45403102 71.85155843 187.0878456 70 193 C69.46439453 194.63775391 69.46439453 194.63775391 68.91796875 196.30859375 C65.90406995 208.42831444 67.80944261 219.77845873 74 230.4375 C82.41728239 243.01949205 95.57150179 252.7029558 110.4375 255.875 C112.62246952 256.26447327 114.80974474 256.64144298 117 257 C123.30284252 258.27960393 123.30284252 258.27960393 125.875 260.9375 C128.90982457 266.50134505 128.25983643 272.61015929 128.29516602 278.76904297 C128.30669338 280.16953631 128.3271577 281.56998545 128.35668945 282.97021484 C128.39945674 284.99867458 128.41554464 287.0258324 128.42578125 289.0546875 C128.44765503 290.87202393 128.44765503 290.87202393 128.4699707 292.72607422 C127.90934256 296.63154092 126.78697023 298.25490832 124 301 C119.75840231 302.4138659 115.63666907 302.38317539 111.1875 302.5625 C109.65295166 302.6251001 109.65295166 302.6251001 108.08740234 302.68896484 C97.76802174 303.05585619 87.44994974 303.10996915 77.125 303.125 C75.88911636 303.12888229 75.88911636 303.12888229 74.62826538 303.13284302 C49.17516027 303.19589045 49.17516027 303.19589045 40.90625 296.23828125 C20.05379839 279.00792756 -3.44315482 274.08830458 -30.0703125 276.3125 C-48.36726137 278.11553938 -63.36678194 284.89463058 -76.83984375 297.31640625 C-82.33538247 301.59954764 -87.08087781 302.4943986 -93.8203125 302.67578125 C-95.11776901 302.72500481 -95.11776901 302.72500481 -96.44143677 302.77522278 C-106.51927839 303.12058068 -116.6040625 303.18608182 -126.68701172 303.18530273 C-129.92037352 303.18753127 -133.153415 303.20589869 -136.38671875 303.22460938 C-138.46354052 303.22753712 -140.54036388 303.22952605 -142.6171875 303.23046875 C-143.5734201 303.23765427 -144.52965271 303.24483978 -145.51486206 303.25224304 C-150.38518049 303.23551944 -154.47367015 303.03267815 -159 301 C-163.98931781 295.66659131 -163.38137707 289.13980669 -163.6875 282.25 C-163.74744141 281.1775 -163.80738281 280.105 -163.86914062 279 C-164.44795965 266.12325887 -164.44795965 266.12325887 -160.1875 260.6875 C-156.01070612 257.46540186 -151.55233709 256.65775266 -146.4375 255.75 C-131.20706762 252.53521699 -119.90055971 244.33320897 -111.40234375 231.3359375 C-106.88391894 223.80942486 -105.05442441 216.20990595 -106.5625 207.5 C-109.11785162 197.98467751 -114.66577101 191.09313994 -123 186 C-133.71620833 180.10988549 -146.84828051 179.32665975 -158.79418945 177.98022461 C-188.5994297 174.61194309 -217.52027656 168.63748617 -244 154 C-245.74990234 153.10474609 -245.74990234 153.10474609 -247.53515625 152.19140625 C-254.29540427 148.70650227 -260.14977557 144.83560986 -266 140 C-267.53976396 138.8308233 -269.08144285 137.66416431 -270.625 136.5 C-280.89117283 128.44774966 -288.35799068 118.74703262 -292 106 C-292.2265625 103.31640625 -292.2265625 103.31640625 -292 101 C-283.18771963 93.28925468 -262.78065126 96.84128824 -251.94076538 97.36354065 C-233.01003364 98.24831878 -214.07592707 98.11569735 -195.12976074 98.06866455 C-190.47583483 98.05825008 -185.82190307 98.05382899 -181.16796875 98.04882812 C-172.11196191 98.03825158 -163.05598929 98.02073404 -154 98 C-153.67 93.38 -153.34 88.76 -153 84 C-151.68 83.67 -150.36 83.34 -149 83 C-148.67 82.34 -148.34 81.68 -148 81 C-147.67 81.33 -147.34 81.66 -147 82 C-145.11929138 82.12393827 -143.23395522 82.17800578 -141.34936523 82.20532227 C-140.12683548 82.22526245 -138.90430573 82.24520264 -137.64472961 82.26574707 C-136.28268648 82.28280592 -134.9206411 82.29968666 -133.55859375 82.31640625 C-132.14205946 82.33710703 -130.72553015 82.35815099 -129.30900574 82.3795166 C-125.48025534 82.43566696 -121.65144469 82.48491588 -117.82257843 82.53242874 C-115.44710635 82.56237888 -113.07166712 82.59422411 -110.69622803 82.62667847 C-80.79666885 83.03316798 -50.90223281 83.12158517 -21 83 C-27.49703491 73.48829965 -34.05607854 64.0480703 -40.91601562 54.79296875 C-41.72135742 53.69275391 -41.72135742 53.69275391 -42.54296875 52.5703125 C-43.01758545 51.92852051 -43.49220215 51.28672852 -43.98120117 50.62548828 C-45 49 -45 49 -45 47 C-45.66 47 -46.32 47 -47 47 C-48.4375 45.171875 -48.4375 45.171875 -50 42.75 C-50.515625 41.96109375 -51.03125 41.1721875 -51.5625 40.359375 C-52.83080683 38.27769749 -53.92629712 36.18542315 -55 34 C-47.15795257 35.54145508 -39.74364586 37.98125859 -32.1875 40.5625 C-29.78559359 41.37759198 -27.38326767 42.19144906 -24.98046875 43.00390625 C-23.92754639 43.36299072 -22.87462402 43.7220752 -21.78979492 44.09204102 C-19.53442362 44.82606796 -17.30927878 45.46714285 -15 46 C-14.84869629 45.33315186 -14.69739258 44.66630371 -14.54150391 43.97924805 C-12.52845417 35.50321169 -9.90919598 27.2976989 -7.12890625 19.05053711 C-6.36396432 16.77973961 -5.60732923 14.50628761 -4.8515625 12.23242188 C-4.3676664 10.786298 -3.88330916 9.34032832 -3.3984375 7.89453125 C-3.17239838 7.21550247 -2.94635925 6.53647369 -2.71347046 5.83686829 C-1.1155881 1.1155881 -1.1155881 1.1155881 0 0 Z " fill="#999A9B" transform="translate(413,330)"/>
<path d="M0 0 C8.38492582 6.92733119 14.55671434 16.92805032 20.9206543 25.64648438 C26.17223704 32.83670539 31.63829656 39.83316346 37.1796875 46.80078125 C41.06395057 51.75684305 44.90657611 56.74451448 48.7421875 61.73828125 C52.91378934 67.16731259 57.10458187 72.58127443 61.3046875 77.98828125 C61.90458496 78.76204102 62.50448242 79.53580078 63.12255859 80.33300781 C65.62986316 83.55954745 68.13892387 86.77908811 70.74609375 89.92578125 C77.00664737 97.48917568 79.50089758 103.022742 79.578125 112.93359375 C78.62677083 119.77961295 73.33407163 125.04634157 68.0546875 129.11328125 C64.46684115 131.80078125 64.46684115 131.80078125 62.1796875 131.80078125 C62.1796875 132.46078125 62.1796875 133.12078125 62.1796875 133.80078125 C60.56569136 135.11808692 58.88554911 136.35482392 57.1796875 137.55078125 C52.95658944 140.53692026 48.81291628 143.58436956 44.73828125 146.76953125 C43.1796875 147.80078125 43.1796875 147.80078125 41.1796875 147.80078125 C40.8496875 148.79078125 40.5196875 149.78078125 40.1796875 150.80078125 C38.1171875 151.48828125 38.1171875 151.48828125 36.1796875 151.80078125 C36.1796875 152.46078125 36.1796875 153.12078125 36.1796875 153.80078125 C23.4959117 160.9036957 23.4959117 160.9036957 18.25390625 160.453125 C10.84723071 158.12371857 4.97403197 153.51385223 1.1796875 146.80078125 C-0.46677935 145.11415667 -2.13214317 143.44566419 -3.8203125 141.80078125 C-6.8203125 138.18009159 -6.8203125 138.18009159 -6.8203125 135.80078125 C-7.4803125 135.80078125 -8.1403125 135.80078125 -8.8203125 135.80078125 C-10.25612724 134.18621046 -11.62176033 132.5085905 -12.9453125 130.80078125 C-13.66976562 129.87265625 -14.39421875 128.94453125 -15.140625 127.98828125 C-15.69492187 127.26640625 -16.24921875 126.54453125 -16.8203125 125.80078125 C-20.77550162 128.02377075 -24.11933314 130.61105809 -27.5703125 133.55078125 C-31.15857493 136.58831789 -34.76898331 139.57402049 -38.5078125 142.42578125 C-42.34179846 145.3702273 -45.92205779 148.53448151 -49.51171875 151.76953125 C-52.65707749 154.53702117 -55.92719346 157.12998822 -59.2109375 159.73046875 C-65.25014435 164.52205502 -71.24393764 169.36734351 -77.0078125 174.48828125 C-79.58737848 176.77711746 -82.22670484 178.88664821 -85.0078125 180.92578125 C-87.30493407 182.61300814 -89.23005891 184.21052766 -91.2578125 186.23828125 C-94.18159054 189.16205929 -97.33389913 191.57614175 -100.63671875 194.0546875 C-102.89757137 195.78806475 -102.89757137 195.78806475 -104.97265625 198.015625 C-106.8203125 199.80078125 -106.8203125 199.80078125 -108.8203125 199.80078125 C-109.1503125 200.79078125 -109.4803125 201.78078125 -109.8203125 202.80078125 C-111.46992757 203.8286664 -113.14175202 204.82087693 -114.8203125 205.80078125 C-117.54646065 207.87378974 -120.1795916 210.05798125 -122.8203125 212.23828125 C-124.87844757 213.92617984 -126.93684557 215.61375253 -128.99609375 217.30029297 C-130.569944 218.59484377 -132.13361945 219.90174645 -133.6953125 221.2109375 C-135.8203125 222.80078125 -135.8203125 222.80078125 -137.8203125 222.80078125 C-138.0471875 223.37828125 -138.2740625 223.95578125 -138.5078125 224.55078125 C-140.17116535 227.40224327 -142.20883317 228.78451088 -144.8203125 230.80078125 C-150.54641647 235.32185259 -156.02665696 239.89142732 -161.1328125 245.11328125 C-164.50481972 248.56034109 -167.59123557 251.47478894 -171.8203125 253.80078125 C-172.4803125 253.80078125 -173.1403125 253.80078125 -173.8203125 253.80078125 C-173.8203125 254.46078125 -173.8203125 255.12078125 -173.8203125 255.80078125 C-177.86116271 258.01362779 -181.2138323 259.426972 -185.8203125 259.80078125 C-194.14595977 257.07688527 -199.0148709 251.80630455 -203.8203125 244.80078125 C-205.04155845 243.25283256 -206.2706888 241.71107007 -207.5078125 240.17578125 C-214.33523555 231.33396085 -214.33523555 231.33396085 -215.3828125 225.86328125 C-213.08984166 213.3793289 -200.05159556 206.12863258 -190.4296875 199.3671875 C-181.7183164 193.22031362 -173.41788353 186.49631176 -165.04418945 179.90209961 C-159.60248513 175.61986856 -154.12103331 171.39084753 -148.62304688 167.18115234 C-146.630741 165.65562452 -144.63963315 164.12853911 -142.6484375 162.6015625 C-135.45141821 157.08645095 -128.23482265 151.60106662 -120.97265625 146.171875 C-114.90791679 141.61016886 -108.88906691 136.98817343 -102.8671875 132.37011719 C-100.97749977 130.92129649 -99.08654998 129.47414042 -97.1953125 128.02734375 C-91.57483942 123.72243911 -85.99608945 119.37317065 -80.484375 114.9296875 C-78.46844043 113.31871339 -76.44363164 111.72406766 -74.40625 110.140625 C-68.36071325 105.4379075 -62.46526278 100.68621353 -56.796875 95.52734375 C-53.95381178 93.04387746 -50.9389719 90.92412382 -47.8203125 88.80078125 C-48.32333573 84.40513208 -49.69922179 82.44000265 -52.7578125 79.30078125 C-56.43093192 75.3753549 -59.85443233 71.36711338 -63.1328125 67.11328125 C-63.93332031 66.07816406 -64.73382813 65.04304688 -65.55859375 63.9765625 C-69.88616895 57.90001909 -73.31340464 52.49035327 -72.8203125 44.80078125 C-70.26816938 34.16344873 -58.53451073 27.44645798 -50.296875 21.390625 C-46.83597005 18.83536786 -43.45160186 16.18639357 -40.06567383 13.53295898 C-12.28813945 -8.23073491 -12.28813945 -8.23073491 0 0 Z " fill="#9A9B9C" transform="translate(430.8203125,135.19921875)"/>
<path d="M0 0 C2 1 2 1 2.65811157 2.79066467 C2.84908417 3.57009933 3.04005676 4.349534 3.23681641 5.15258789 C3.56693222 6.47384422 3.56693222 6.47384422 3.90371704 7.8217926 C4.13400604 8.77907761 4.36429504 9.73636261 4.6015625 10.72265625 C4.8428891 11.69786728 5.0842157 12.67307831 5.33285522 13.67784119 C6.10462544 16.80421894 6.86491574 19.93326282 7.625 23.0625 C8.14508168 25.17791931 8.66590532 27.29315636 9.1875 29.40820312 C10.46696181 34.60338161 11.73700042 39.80079637 13 45 C13.8559375 44.84982422 14.711875 44.69964844 15.59375 44.54492188 C18.89377167 44.0169941 22.17611178 43.62489966 25.5 43.28125 C26.716875 43.15363281 27.93375 43.02601563 29.1875 42.89453125 C31.72916667 42.63151042 34.27083333 42.36848958 36.8125 42.10546875 C38.029375 41.97785156 39.24625 41.85023438 40.5 41.71875 C41.6034375 41.60466797 42.706875 41.49058594 43.84375 41.37304688 C46.91726791 41.00977836 49.95208276 40.53476259 53 40 C51.40584497 43.91209308 48.86106668 46.37218086 45.875 49.3125 C45.37709961 49.80395508 44.87919922 50.29541016 44.36621094 50.80175781 C41.73520632 53.37847993 39.0581962 55.86860014 36.25 58.25 C31.43420463 62.34939606 27.05436192 66.89495101 22.62988281 71.40722656 C21.3924739 72.66163105 20.14291514 73.90415981 18.88183594 75.13476562 C17.63072524 76.37483902 16.41897792 77.65596128 15.25097656 78.97460938 C10.25908178 84.16106279 5.69024194 85.09645826 -1.40625 85.48291016 C-19.28098919 85.56238372 -19.28098919 85.56238372 -24.109375 80.8203125 C-26.8076206 77.32187695 -28.75596471 73.479413 -30.67382812 69.51220703 C-33.04245644 65.02524361 -36.19258854 61.0966757 -39.25 57.0625 C-40.36632891 55.55852212 -41.47631637 54.04980389 -42.578125 52.53515625 C-43.04637695 51.899729 -43.51462891 51.26430176 -43.99707031 50.60961914 C-45 49 -45 49 -45 47 C-45.66 47 -46.32 47 -47 47 C-48.4375 45.171875 -48.4375 45.171875 -50 42.75 C-50.515625 41.96109375 -51.03125 41.1721875 -51.5625 40.359375 C-52.83080683 38.27769749 -53.92629712 36.18542315 -55 34 C-47.15795257 35.54145508 -39.74364586 37.98125859 -32.1875 40.5625 C-29.78559359 41.37759198 -27.38326767 42.19144906 -24.98046875 43.00390625 C-23.92754639 43.36299072 -22.87462402 43.7220752 -21.78979492 44.09204102 C-19.53442362 44.82606796 -17.30927878 45.46714285 -15 46 C-14.84869629 45.33315186 -14.69739258 44.66630371 -14.54150391 43.97924805 C-12.52845417 35.50321169 -9.90919598 27.2976989 -7.12890625 19.05053711 C-6.36396432 16.77973961 -5.60732923 14.50628761 -4.8515625 12.23242188 C-4.3676664 10.786298 -3.88330916 9.34032832 -3.3984375 7.89453125 C-3.17239838 7.21550247 -2.94635925 6.53647369 -2.71347046 5.83686829 C-1.1155881 1.1155881 -1.1155881 1.1155881 0 0 Z " fill="#E15F18" transform="translate(413,330)"/>
<path d="M0 0 C3.65321063 3.56105757 7.03597302 7.27522024 10.3125 11.1875 C10.78598877 11.74977295 11.25947754 12.3120459 11.74731445 12.89135742 C15.91613442 17.86006225 19.98626326 22.9051995 24 28 C22.67789709 31.0118602 21.36610497 32.80540131 18.796875 34.84765625 C18.15379395 35.36448975 17.51071289 35.88132324 16.84814453 36.41381836 C16.15575684 36.9578833 15.46336914 37.50194824 14.75 38.0625 C13.67081299 38.92403687 13.67081299 38.92403687 12.56982422 39.80297852 C10.38584471 41.54299917 8.19391498 43.27253174 6 45 C4.82015581 45.93469809 3.64045666 46.86957929 2.4609375 47.8046875 C-0.3844586 50.05428471 -3.24074306 52.28959121 -6.1015625 54.51953125 C-8.17381635 56.13554814 -10.24310967 57.75531817 -12.3125 59.375 C-20.06441065 65.4330893 -27.85496279 71.43060785 -35.74072266 77.31347656 C-41.43922492 81.56734743 -47.09736159 85.87292093 -52.75 90.1875 C-58.31817876 94.43730498 -63.88912536 98.6816876 -69.5 102.875 C-79.5475254 110.38941689 -89.43565861 118.11064816 -99.33520508 125.81811523 C-106.97579702 131.76476031 -114.64900855 137.66805959 -122.3359375 143.5546875 C-134.15079386 152.22442073 -134.15079386 152.22442073 -145 162 C-141.75720292 152.11636849 -130.76678726 146.2682562 -122.57421875 140.53125 C-113.86429085 134.41241387 -105.58377084 127.68466298 -97.22387695 121.10131836 C-91.78217263 116.81908731 -86.30072081 112.59006628 -80.80273438 108.38037109 C-78.8104285 106.85484327 -76.81932065 105.32775786 -74.828125 103.80078125 C-67.63110571 98.2856697 -60.41451015 92.80028537 -53.15234375 87.37109375 C-47.08760429 82.80938761 -41.06875441 78.18739218 -35.046875 73.56933594 C-33.15718727 72.12051524 -31.26623748 70.67335917 -29.375 69.2265625 C-23.75452692 64.92165786 -18.17577695 60.5723894 -12.6640625 56.12890625 C-10.64812793 54.51793214 -8.62331914 52.92328641 -6.5859375 51.33984375 C-0.54040075 46.63712625 5.35504972 41.88543228 11.0234375 36.7265625 C13.86650072 34.24309621 16.8813406 32.12334257 20 30 C19.49697677 25.60435083 18.12109071 23.6392214 15.0625 20.5 C11.29614224 16.47932227 7.80039029 12.35703603 4.4375 8 C3.99607666 7.43603516 3.55465332 6.87207031 3.09985352 6.29101562 C0 2.24574682 0 2.24574682 0 0 Z " fill="#13181E" transform="translate(363,194)"/>
<path d="M0 0 C0.99 0.495 0.99 0.495 2 1 C1.67 5.95 1.34 10.9 1 16 C-44.21 16.33 -89.42 16.66 -136 17 C-136.33 19.64 -136.66 22.28 -137 25 C-139.14201526 21.78697711 -139.65325876 20.73290719 -139 17 C-130.18771963 9.28925468 -109.78065126 12.84128824 -98.94076538 13.36354065 C-80.01003364 14.24831878 -61.07592707 14.11569735 -42.12976074 14.06866455 C-37.47583483 14.05825008 -32.82190307 14.05382899 -28.16796875 14.04882812 C-19.11196191 14.03825158 -10.05598929 14.02073404 -1 14 C-0.67 9.38 -0.34 4.76 0 0 Z " fill="#393D42" transform="translate(260,414)"/>
<path d="M0 0 C7.12913004 3.0161704 11.63795787 8.19979402 15 15 C18.56445463 24.01271429 17.83658184 33.56846146 14.2734375 42.42578125 C12.32198378 46.37059107 9.82703195 49.64996714 7 53 C6.40445313 53.80566406 5.80890625 54.61132812 5.1953125 55.44140625 C-3.26519938 65.30196725 -17.11675764 71.84728884 -30 73 C-32.2890625 72.54296875 -32.2890625 72.54296875 -34 72 C-32.98421875 71.78085937 -31.9684375 71.56171875 -30.921875 71.3359375 C-13.6717206 67.44108073 -0.3439419 60.54073468 9.59765625 45.3359375 C14.11608106 37.80942486 15.94557559 30.20990595 14.4375 21.5 C12.10247618 12.70474362 7.04274073 6.49333777 0 1 C0 0.67 0 0.34 0 0 Z " fill="#14191F" transform="translate(292,516)"/>
<path d="M0 0 C0.66 0.33 1.32 0.66 2 1 C-0.97133495 4.16303398 -4.04678755 6.86541221 -7.5 9.5 C-10.01298722 11.41780603 -12.25947461 13.25947461 -14.5 15.5 C-17.40055592 18.40055592 -20.53956686 20.79485694 -23.81640625 23.25390625 C-26.07725887 24.9872835 -26.07725887 24.9872835 -28.15234375 27.21484375 C-30 29 -30 29 -32 29 C-32.33 29.99 -32.66 30.98 -33 32 C-34.65086694 33.02587334 -36.32248357 34.01830941 -38 35 C-40.83002513 37.15672675 -43.56785217 39.42359478 -46.3125 41.6875 C-47.05306641 42.29400391 -47.79363281 42.90050781 -48.55664062 43.52539062 C-50.37349655 45.01404032 -52.18784577 46.50563349 -54 48 C-54.66 47.67 -55.32 47.34 -56 47 C-48.3326668 40.30531096 -40.65237169 33.65014087 -32.7421875 27.2421875 C-29.62999817 24.69746289 -26.56274616 22.10380529 -23.5 19.5 C-18.50926785 15.25917061 -13.46919737 11.08483981 -8.390625 6.94921875 C-5.57561635 4.65397477 -2.78407384 2.33260241 0 0 Z " fill="#10151B" transform="translate(354,306)"/>
<path d="M0 0 C0.99 0.99 0.99 0.99 2 2 C1.23816406 1.93039063 0.47632813 1.86078125 -0.30859375 1.7890625 C-8.62617065 1.35293487 -12.67933045 2.75894792 -19 8 C-20.10769001 8.88492578 -21.21721158 9.7675617 -22.328125 10.6484375 C-24.2212964 12.15404242 -26.11043805 13.66380815 -27.99047852 15.18579102 C-32.66268664 18.96706038 -37.4233399 22.60605836 -42.25 26.1875 C-47.92161005 30.39803312 -53.44304155 34.72572846 -58.86328125 39.2578125 C-61 41 -61 41 -64 43 C-60.528444 34.8937378 -51.37955004 29.6901355 -44.51171875 24.625 C-41.04190584 22.05281481 -37.64293861 19.39372867 -34.24316406 16.72998047 C-9.50014274 -2.65120263 -9.50014274 -2.65120263 0 0 Z " fill="#13171D" transform="translate(425,132)"/>
<path d="M0 0 C0.66 0.33 1.32 0.66 2 1 C1.51104248 1.66604248 1.02208496 2.33208496 0.51831055 3.01831055 C-1.33964526 6.66700233 -1.38176222 9.71559882 -1.29296875 13.70703125 C-1.28872391 14.43242599 -1.28447906 15.15782074 -1.28010559 15.90519714 C-1.26339543 18.20801891 -1.2257596 20.50994553 -1.1875 22.8125 C-1.17244316 24.3795446 -1.1587565 25.946603 -1.14648438 27.51367188 C-1.11351731 31.34278957 -1.06178992 35.17124334 -1 39 C-1.99 38.67 -2.98 38.34 -4 38 C-5.59785168 33.20644497 -5.46431982 28.27304191 -5.6875 23.25 C-5.74744141 22.1775 -5.80738281 21.105 -5.86914062 20 C-6.4614379 6.82341406 -6.4614379 6.82341406 -1.875 1.5625 C-0.946875 0.7890625 -0.946875 0.7890625 0 0 Z " fill="#606164" transform="translate(255,589)"/>
<path d="M0 0 C2 1 2 1 3.125 4.3125 C4 8 4 8 4 12 C3.34 12 2.68 12 2 12 C2 12.66 2 13.32 2 14 C0.04072937 15.7143618 -1.95880212 17.38405168 -4 19 C-5.12987046 14.23023038 -4.78289226 11.27814651 -3.125 6.6875 C-2.75632812 5.63949219 -2.38765625 4.59148437 -2.0078125 3.51171875 C-1 1 -1 1 0 0 Z " fill="#E1631C" transform="translate(413,330)"/>
<path d="M0 0 C2.56303519 2.53994478 5.08513095 5.09099755 7.55078125 7.7265625 C14.75050835 15.34480234 22.55368213 21.21056195 31.38110352 26.84008789 C33.11233596 28.08048683 34.5355557 29.45791048 36 31 C22.76735436 27.86595235 9.73690661 14.82350445 1.0625 4.75 C0 3 0 3 0 0 Z " fill="#12171D" transform="translate(128,449)"/>
<path d="M0 0 C3.86800057 2.83318483 7.64413562 5.63468495 11.125 8.9375 C19.3900644 16.02717149 29.04076803 19.59074432 39.66967773 21.02612305 C43.58022037 21.57418216 46.07260084 22.29549925 49 25 C48.67 25.66 48.34 26.32 48 27 C47.50371094 26.53078125 47.00742187 26.0615625 46.49609375 25.578125 C43.17148379 23.47618067 39.8815543 23.23024036 36.0625 22.75 C21.98807195 20.59001841 9.42003495 12.71298092 0 2 C0 1.34 0 0.68 0 0 Z " fill="#171B20" transform="translate(490,566)"/>
<path d="M0 0 C0.66 0.33 1.32 0.66 2 1 C-3.6447901 6.18840281 -9.37385175 11.18987356 -15.39453125 15.9375 C-19.97778404 19.56562215 -24.48286976 23.29011357 -29 27 C-29.66 26.67 -30.32 26.34 -31 26 C-25.26148163 20.70173833 -19.27945178 15.80978802 -13.11621094 11.02294922 C-8.6005401 7.50458171 -4.23526255 3.85382586 0 0 Z " fill="#0E1319" transform="translate(387,279)"/>
<path d="M0 0 C6.17222879 1.24028238 12.06682122 2.89603589 18 5 C18 5.33 18 5.66 18 6 C14.7 6.33 11.4 6.66 8 7 C8.33 6.01 8.66 5.02 9 4 C7.68 4 6.36 4 5 4 C5.66 4.33 6.32 4.66 7 5 C10 10.42307692 10 10.42307692 10 13 C9.34 13 8.68 13 8 13 C6.5625 11.171875 6.5625 11.171875 5 8.75 C4.484375 7.96109375 3.96875 7.1721875 3.4375 6.359375 C2.17016414 4.27929114 1.0480542 2.19688285 0 0 Z " fill="#A45022" transform="translate(358,364)"/>
<path d="M0 0 C6.45615678 6.24789366 12.40610194 12.97482738 18 20 C18.98230498 21.0173873 19.97469597 22.02596117 21 23 C14.38513589 20.92104271 10.60971039 15.69459049 6.3125 10.5 C5.54550781 9.5821875 4.77851563 8.664375 3.98828125 7.71875 C2.12874281 5.17604125 1.00534879 2.96766061 0 0 Z " fill="#11171C" transform="translate(220,369)"/>
<path d="M0 0 C0.83660156 0.20238281 1.67320312 0.40476562 2.53515625 0.61328125 C3.85773438 0.92652344 3.85773438 0.92652344 5.20703125 1.24609375 C7.75504904 1.97053018 10.14447593 2.93124869 12.59765625 3.92578125 C14.92363136 4.30708865 17.25677783 4.65038379 19.59765625 4.92578125 C19.59765625 5.25578125 19.59765625 5.58578125 19.59765625 5.92578125 C10.65336638 6.50630006 2.29929101 4.7395215 -6.40234375 2.92578125 C-4.17215484 0.89131331 -3.08147459 -0.09520003 0 0 Z " fill="#494B4F" transform="translate(234.40234375,501.07421875)"/>
<path d="M0 0 C4.99924035 0.65989973 9.22382338 2.77732014 13.75 4.875 C19.73739898 7.64544054 25.69665799 10.03933479 32 12 C28.82088278 13.050252 27.12004196 12.97561238 24.0234375 11.7421875 C23.27433105 11.44836182 22.52522461 11.15453613 21.75341797 10.85180664 C20.57610107 10.36828735 20.57610107 10.36828735 19.375 9.875 C18.57336426 9.5545874 17.77172852 9.2341748 16.94580078 8.90405273 C11.14926755 6.55554832 5.4944826 3.99573549 0 1 C0 0.67 0 0.34 0 0 Z " fill="#13171D" transform="translate(171,484)"/>
<path d="M0 0 C0.66 0.33 1.32 0.66 2 1 C0.13128235 2.92314631 -1.74452468 4.8384057 -3.625 6.75 C-4.14707031 7.28882813 -4.66914063 7.82765625 -5.20703125 8.3828125 C-8.57102984 11.78834194 -11.92722989 14.48050858 -16 17 C-16.66 16.67 -17.32 16.34 -18 16 C-12.07341663 10.57712263 -6.13842918 5.18356242 0 0 Z " fill="#10151B" transform="translate(275,372)"/>
<path d="M0 0 C4.66666667 4.66666667 9.33333333 9.33333333 14 14 C13.34 14.66 12.68 15.32 12 16 C10.55935235 14.58653438 9.12260985 13.16908789 7.6875 11.75 C6.88699219 10.96109375 6.08648437 10.1721875 5.26171875 9.359375 C0 3.87046632 0 3.87046632 0 0 Z " fill="#181E24" transform="translate(128,449)"/>
<path d="M0 0 C3.59634744 3.49359465 6.83451967 7.11098131 10 11 C9.67 11.66 9.34 12.32 9 13 C1.95180723 7.36144578 1.95180723 7.36144578 0 4 C0 2.68 0 1.36 0 0 Z " fill="#4E5155" transform="translate(455,167)"/>
<path d="M0 0 C-1.75 3.875 -1.75 3.875 -4 5 C-4 4.34 -4 3.68 -4 3 C-8.29 3 -12.58 3 -17 3 C-17 2.67 -17 2.34 -17 2 C-16.24074219 1.93941406 -15.48148437 1.87882812 -14.69921875 1.81640625 C-13.70535156 1.73261719 -12.71148437 1.64882813 -11.6875 1.5625 C-10.70136719 1.48128906 -9.71523438 1.40007812 -8.69921875 1.31640625 C-5.61423387 0.95477995 -3.13154097 0 0 0 Z " fill="#A05226" transform="translate(466,370)"/>
<path d="M0 0 C1.125 3.75 1.125 3.75 0 6 C1.32 6.33 2.64 6.66 4 7 C2.35 8.65 0.7 10.3 -1 12 C-2.11658501 7.31034294 -1.80619523 4.46236469 0 0 Z " fill="#C5561B" transform="translate(410,337)"/>
<path d="M0 0 C0.66 0.33 1.32 0.66 2 1 C2.40729228 3.32156597 2.74438677 5.6568787 3 8 C2.34 8 1.68 8 1 8 C0.34 8.66 -0.32 9.32 -1 10 C-2.23076923 4.58461538 -2.23076923 4.58461538 -1.0625 1.625 C-0.5365625 0.820625 -0.5365625 0.820625 0 0 Z " fill="#B35620" transform="translate(413,330)"/>
<path d="M0 0 C4.21878192 -0.19622241 7.17010894 0.19769832 11 2 C11 2.33 11 2.66 11 3 C7.7 3.33 4.4 3.66 1 4 C1.33 3.01 1.66 2.02 2 1 C1.34 0.67 0.68 0.34 0 0 Z " fill="#BA5620" transform="translate(365,367)"/>
<path d="M0 0 C2.96404505 2.80804268 5.44499019 5.18315774 7 9 C1.21538462 5.67692308 1.21538462 5.67692308 0.125 2.25 C0.08375 1.5075 0.0425 0.765 0 0 Z " fill="#515356" transform="translate(475,193)"/>
<path d="M0 0 C2.64 0 5.28 0 8 0 C5.65085508 2.34914492 4.04320554 2.73140357 0.875 3.625 C-0.49011719 4.01558594 -0.49011719 4.01558594 -1.8828125 4.4140625 C-2.58148437 4.60742188 -3.28015625 4.80078125 -4 5 C-3.34 4.01 -2.68 3.02 -2 2 C-1.34 2.33 -0.68 2.66 0 3 C0 2.01 0 1.02 0 0 Z " fill="#4C4D51" transform="translate(539,466)"/>
<path d="M0 0 C3.63 0 7.26 0 11 0 C10.67 0.66 10.34 1.32 10 2 C6.76902047 2.86159454 4.77513726 3.30597523 1.625 2.0625 C1.08875 1.711875 0.5525 1.36125 0 1 C0 0.67 0 0.34 0 0 Z " fill="#181D24" transform="translate(241,392)"/>
<path d="M0 0 C0 3 0 3 -1.3125 4.38671875 C-2.875 5.59114583 -4.4375 6.79557292 -6 8 C-6.66 7.67 -7.32 7.34 -8 7 C-5.36 4.69 -2.72 2.38 0 0 Z " fill="#0F141A" transform="translate(292,358)"/>
<path d="M0 0 C-1.39332574 3.36720387 -2.9789286 4.9859524 -6 7 C-6.66 6.67 -7.32 6.34 -8 6 C-7.0479279 4.99403703 -6.08812654 3.99538437 -5.125 3 C-4.59132813 2.443125 -4.05765625 1.88625 -3.5078125 1.3125 C-2 0 -2 0 0 0 Z " fill="#181C22" transform="translate(339,623)"/>
<path d="" fill="#111B26" transform="translate(0,0)"/>
<path d="" fill="#131D25" transform="translate(0,0)"/>
<path d="" fill="#121D26" transform="translate(0,0)"/>
<path d="" fill="#131C26" transform="translate(0,0)"/>
</svg>
